<svg xmlns="http://www.w3.org/2000/svg" version="1.1" xmlns:xlink="http://www.w3.org/1999/xlink" xmlns:svgjs="http://svgjs.dev/svgjs" width="2000" height="272" viewBox="0 0 2000 272"><g transform="matrix(1,0,0,1,-1.2121212121212466,-1.0586576428120509)"><svg viewBox="0 0 396 54" data-background-color="#fafafa" preserveAspectRatio="xMidYMid meet" height="272" width="2000" xmlns="http://www.w3.org/2000/svg" xmlns:xlink="http://www.w3.org/1999/xlink"><g id="tight-bounds" transform="matrix(1,0,0,1,0.2400000000000091,0.21017467908768594)"><svg viewBox="0 0 395.52 53.57965064182462" height="53.57965064182462" width="395.52"><g><svg viewBox="0 0 562.7863285180167 76.23860959746783" height="53.57965064182462" width="395.52"><g><rect width="4.974874451334844" height="66.19850326842358" x="408.543231547997" y="5.020053164522125" fill="#130912" opacity="1" stroke-width="0" stroke="transparent" fill-opacity="1" class="rect-yte-0" data-fill-palette-color="primary" rx="1%" id="yte-0" data-palette-color="#130912"></rect></g><g transform="matrix(1,0,0,1,0,10.53659510355742)"><svg viewBox="0 0 395.52 55.16541939035299" height="55.16541939035299" width="395.52"><g id="textblocktransform"><svg viewBox="0 0 395.52 55.16541939035299" height="55.16541939035299" width="395.52" id="textblock"><g><svg viewBox="0 0 395.52 55.16541939035299" height="55.16541939035299" width="395.52"><g transform="matrix(1,0,0,1,0,0)"><svg width="395.52" viewBox="0.78 -39.79 354.78000000000003 49.48" height="55.16541939035299" data-palette-color="#130912"><path d="M14.09 0.44L14.09 0.44Q4.69 0.44 4.69-9.35L4.69-9.35 4.69-18.99 0.78-18.99 0.78-26.15 4.69-26.15 4.69-31.74 16.38-34.35 16.38-26.15 21.07-26.15 21.07-18.99 16.38-18.99 16.38-10.21Q16.38-9.11 17.21-8.37 18.04-7.64 19.29-7.64L19.29-7.64Q20.19-7.64 21.07-7.79L21.07-7.79 21.07-1Q17.85 0.44 14.09 0.44ZM34.4-28.71L34.4-28.71Q31.35-28.71 29.37-30.15 27.39-31.59 27.39-34.3L27.39-34.3Q27.39-37.01 29.37-38.4 31.35-39.79 34.45-39.79L34.45-39.79Q37.55-39.79 39.49-38.43 41.43-37.06 41.43-34.3L41.43-34.3Q41.43-31.59 39.44-30.15 37.45-28.71 34.4-28.71ZM40.23-7.35L43.38-7.35 43.38 0 25.39 0 25.39-7.35 28.54-7.35 28.54-18.6 25.39-18.6 25.39-24.61 40.23-26.15 40.23-7.35ZM61.35 0.44L61.35 0.44Q56.88 0.44 53.56-1.27L53.56-1.27Q50.21-2.95 48.36-6.05 46.5-9.16 46.5-13.35L46.5-13.35Q46.5-17.14 48.07-20.17L48.07-20.17Q49.6-23.19 52.47-24.93 55.34-26.66 59.15-26.66L59.15-26.66Q60.59-26.66 62.2-26.31 63.81-25.95 65.1-25.27 66.38-24.58 66.79-23.56L66.79-23.56 67.79-26.15 73.12-26.15 73.12-15.36 66.06-15.36Q65.86-17.31 64.91-18.41 63.96-19.51 62.54-19.51L62.54-19.51Q60.44-19.51 59.35-18.18 58.25-16.85 58.25-13.31L58.25-13.31Q58.25-10.86 59.14-9.46 60.03-8.06 61.46-7.46 62.89-6.86 64.5-6.86L64.5-6.86Q66.25-6.86 68.31-7.48 70.36-8.11 71.94-9.45L71.94-9.45 72.31-9.2 72.31-2.39Q72.31-2.29 70.82-1.56L70.82-1.56Q69.33-0.81 66.87-0.18 64.4 0.44 61.35 0.44ZM110.66-18.6L106.76-18.6 102.56-15.09 107.61-7.35 111.44-7.35 111.44 0 99.8 0 92.64-10.69 92.64 0 76.65 0 76.65-7.35 80.95-7.35 80.95-29.86 76.65-29.86 76.65-36.5 92.64-38.11 92.64-14.36 97.75-18.6 95.06-18.6 95.06-26.15 110.66-26.15 110.66-18.6ZM127.68 0.44L127.68 0.44Q123.13 0.44 119.79-1.25L119.79-1.25Q116.42-2.91 114.63-6.01 112.83-9.11 112.83-13.26L112.83-13.26Q112.83-17.36 114.59-20.39L114.59-20.39Q116.32-23.39 119.5-25.02 122.67-26.66 126.94-26.66L126.94-26.66Q130.87-26.66 133.88-25.12L133.88-25.12Q136.88-23.56 138.53-20.7 140.18-17.85 140.18-14.04L140.18-14.04Q140.18-12.72 139.78-11.55L139.78-11.55 124.57-11.55Q124.57-9.25 126.31-7.87 128.04-6.49 130.48-6.49L130.48-6.49Q132.34-6.49 134.56-7.14 136.78-7.79 139.03-9.16L139.03-9.16 139.44-9.01 139.44-2.44Q136.93-1 134.28-0.28 131.63 0.44 127.68 0.44ZM124.57-16.55L124.57-16.55 124.57-15.84 130.82-15.84 130.82-16.36Q130.82-18.09 130.03-19.35 129.24-20.61 127.68-20.61L127.68-20.61Q126.38-20.61 125.48-19.32 124.57-18.04 124.57-16.55ZM156.51 0.44L156.51 0.44Q147.11 0.44 147.11-9.35L147.11-9.35 147.11-18.99 143.2-18.99 143.2-26.15 147.11-26.15 147.11-31.74 158.8-34.35 158.8-26.15 163.49-26.15 163.49-18.99 158.8-18.99 158.8-10.21Q158.8-9.11 159.63-8.37 160.46-7.64 161.71-7.64L161.71-7.64Q162.61-7.64 163.49-7.79L163.49-7.79 163.49-1Q160.27 0.44 156.51 0.44ZM181.45 0.44L181.45 0.44Q176.45 0.44 172.59-2.2L172.59-2.2 171.79 0 167.25 0 167.25-9.64 172.69-9.64Q173.01-7.79 174.42-6.32 175.84-4.86 177.69-4.86L177.69-4.86Q178.4-4.86 178.93-5.25 179.45-5.64 179.45-6.54L179.45-6.54Q179.45-7.45 178.43-8.18L178.43-8.18Q177.38-8.94 175.3-9.91L175.3-9.91Q172.79-11.16 171.2-12.18L171.2-12.18Q169.59-13.21 168.42-14.88 167.25-16.55 167.25-18.9L167.25-18.9Q167.25-21.31 168.83-23.1L168.83-23.1Q170.42-24.85 173.01-25.76 175.6-26.66 178.65-26.66L178.65-26.66Q182.63-26.66 186.04-24.56L186.04-24.56 186.65-26.15 190.71-26.15 190.71-18.36 186-18.36Q185.39-19.95 184.24-20.85 183.09-21.75 181.55-21.75L181.55-21.75Q179.75-21.75 179.75-20.61L179.75-20.61Q179.77-19.82 180.7-19.26L180.7-19.26Q181.63-18.73 183.7-17.8L183.7-17.8Q184.99-17.26 186.07-16.72 187.14-16.19 188-15.7L188-15.7Q189.71-14.7 190.98-12.88 192.25-11.06 192.25-8.35L192.25-8.35Q192.25-5.47 190.76-3.52L190.76-3.52Q189.27-1.54 186.8-0.55 184.34 0.44 181.45 0.44ZM214.19-7.35L214.19 0 196.98 0 196.98-7.35 200.08-7.35 200.08-29.86 196.98-29.86 196.98-36.5 211.82-38.11 211.82-22.34Q212.78-24.1 215.16-25.38 217.54-26.66 220.44-26.66L220.44-26.66Q224.69-26.66 226.86-24.16 229.04-21.66 229.04-17.14L229.04-17.14 229.04-7.35 232.14-7.35 232.14 0 217.27 0 217.27-15.94Q217.27-17.41 216.43-18.36 215.58-19.31 214.48-19.31L214.48-19.31Q213.24-19.31 212.53-18.46 211.82-17.6 211.82-16.16L211.82-16.16 211.82-7.35 214.19-7.35ZM252.06 2.34L252.06 9.69 234.06 9.69 234.06 2.29 237.21 2.29 237.21-18.6 234.06-18.6 234.06-25.15 248.91-26.66 248.91-22.51Q250.15-24.24 252.13-25.45 254.11-26.66 256.77-26.66L256.77-26.66Q260.26-26.66 262.72-24.85L262.72-24.85Q265.19-23.05 266.42-20 267.66-16.94 267.66-13.21L267.66-13.21Q267.66-9.5 266.44-6.35L266.44-6.35Q265.21-3.25 262.74-1.4 260.26 0.44 256.72 0.44L256.72 0.44Q254.25 0.44 252.24-0.52 250.22-1.49 248.91-2.91L248.91-2.91 248.91 2.34 252.06 2.34ZM252.42-6.69L252.42-6.69Q254.62-6.69 255.67-8.45 256.72-10.21 256.72-13.06L256.72-13.06Q256.72-15.99 255.57-17.75 254.42-19.51 252.57-19.51L252.57-19.51Q251.32-19.51 250.32-18.88 249.32-18.26 248.91-17.26L248.91-17.26 248.91-8.79Q250-6.69 252.42-6.69ZM285.79 0.44L285.79 0.44Q281.25 0.44 277.91-1.25L277.91-1.25Q274.54-2.91 272.74-6.01 270.95-9.11 270.95-13.26L270.95-13.26Q270.95-17.36 272.71-20.39L272.71-20.39Q274.44-23.39 277.61-25.02 280.79-26.66 285.06-26.66L285.06-26.66Q288.99-26.66 291.99-25.12L291.99-25.12Q295-23.56 296.64-20.7 298.29-17.85 298.29-14.04L298.29-14.04Q298.29-12.72 297.9-11.55L297.9-11.55 282.69-11.55Q282.69-9.25 284.43-7.87 286.16-6.49 288.6-6.49L288.6-6.49Q290.46-6.49 292.68-7.14 294.9-7.79 297.15-9.16L297.15-9.16 297.56-9.01 297.56-2.44Q295.05-1 292.4-0.28 289.75 0.44 285.79 0.44ZM282.69-16.55L282.69-16.55 282.69-15.84 288.94-15.84 288.94-16.36Q288.94-18.09 288.15-19.35 287.36-20.61 285.79-20.61L285.79-20.61Q284.5-20.61 283.6-19.32 282.69-18.04 282.69-16.55ZM320.82-7.35L320.82 0 302.07 0 302.07-7.35 305.22-7.35 305.22-18.6 302.07-18.6 302.07-25.2 316.92-26.66 316.92-22.41Q317.7-23.63 319.21-24.6 320.73-25.56 322.45-26.11 324.17-26.66 325.54-26.66L325.54-26.66 325.54-16.31Q322.68-17.26 320.82-17.26L320.82-17.26Q318.48-17.26 317.7-15.91 316.92-14.55 316.92-12.35L316.92-12.35 316.92-7.35 320.82-7.35ZM343.06 0.44L343.06 0.44Q338.52 0.44 335.18-1.25L335.18-1.25Q331.81-2.91 330.01-6.01 328.22-9.11 328.22-13.26L328.22-13.26Q328.22-17.36 329.98-20.39L329.98-20.39Q331.71-23.39 334.88-25.02 338.06-26.66 342.33-26.66L342.33-26.66Q346.26-26.66 349.26-25.12L349.26-25.12Q352.27-23.56 353.92-20.7 355.56-17.85 355.56-14.04L355.56-14.04Q355.56-12.72 355.17-11.55L355.17-11.55 339.96-11.55Q339.96-9.25 341.7-7.87 343.43-6.49 345.87-6.49L345.87-6.49Q347.73-6.49 349.95-7.14 352.17-7.79 354.42-9.16L354.42-9.16 354.83-9.01 354.83-2.44Q352.32-1 349.67-0.28 347.02 0.44 343.06 0.44ZM339.96-16.55L339.96-16.55 339.96-15.84 346.21-15.84 346.21-16.36Q346.21-18.09 345.42-19.35 344.63-20.61 343.06-20.61L343.06-20.61Q341.77-20.61 340.87-19.32 339.96-18.04 339.96-16.55Z" opacity="1" transform="matrix(1,0,0,1,0,0)" fill="#130912" class="wordmark-text-0" data-fill-palette-color="primary" id="text-0"></path></svg></g></svg></g></svg></g></svg></g><g transform="matrix(1,0,0,1,426.54133754732885,0)"><svg viewBox="0 0 136.24499097068792 76.23860959746783" height="76.23860959746783" width="136.24499097068792"><g><svg xmlns="http://www.w3.org/2000/svg" xmlns:xlink="http://www.w3.org/1999/xlink" version="1.1" x="0" y="0" viewBox="0 20 100 55.956999999999994" enable-background="new 0 0 100 100" xml:space="preserve" height="76.23860959746783" width="136.24499097068792" class="icon-icon-0" data-fill-palette-color="accent" id="icon-0"><g fill="#e77917" data-fill-palette-color="accent"><path d="M100 25.957V20H0V25.957H6.25V32.207H0V38.457H6.25V44.707H0V50.957H6.25V57.207H0V63.457H6.25V69.707H0V75.957H100V69.707H93.75V63.457H100V57.207H93.75V50.957H100V44.707H93.75V38.457H100V32.207H93.75V25.957zM87.5 69.707H12.5V25.957H87.5z" fill="#e77917" data-fill-palette-color="accent"></path><rect x="18.75" y="32.207" width="12.5" height="31.25" fill="#e77917" data-fill-palette-color="accent"></rect><rect x="37.5" y="32.207" width="43.75" height="31.25" fill="#e77917" data-fill-palette-color="accent"></rect></g></svg></g></svg></g></svg></g><defs></defs></svg><rect width="395.52" height="53.57965064182462" fill="none" stroke="none" visibility="hidden"></rect></g></svg></g></svg>